HIERARCHY
ROOT Hips
{
	OFFSET 0.00000 0.00000 0.00000
	CHANNELS 6 Xposition Yposition Zposition Zrotation Yrotation Xrotation 
	JOINT LHipJoint
	{
		OFFSET 0 0 0
		CHANNELS 3 Zrotation Yrotation Xrotation
		JOINT LeftUpLeg
		{
			OFFSET 1.49846 -1.74315 1.08250
			CHANNELS 3 Zrotation Yrotation Xrotation
			JOINT LeftLeg
			{
				OFFSET 2.40966 -6.62050 0.00000
				CHANNELS 3 Zrotation Yrotation Xrotation
				JOINT LeftFoot
				{
					OFFSET 2.68066 -7.36505 0.00000
					CHANNELS 3 Zrotation Yrotation Xrotation
					JOINT LeftToeBase
					{
						OFFSET 0.14291 -0.39265 2.35870
						CHANNELS 3 Zrotation Yrotation Xrotation
						End Site
						{
							OFFSET 0.00000 -0.00000 1.20470
						}
					}
				}
			}
		}
	}
	JOINT RHipJoint
	{
		OFFSET 0 0 0
		CHANNELS 3 Zrotation Yrotation Xrotation
		JOINT RightUpLeg
		{
			OFFSET -1.46318 -1.74316 1.08250
			CHANNELS 3 Zrotation Yrotation Xrotation
			JOINT RightLeg
			{
				OFFSET -2.39759 -6.58734 0.00000
				CHANNELS 3 Zrotation Yrotation Xrotation
				JOINT RightFoot
				{
					OFFSET -2.63570 -7.24154 0.00000
					CHANNELS 3 Zrotation Yrotation Xrotation
					JOINT RightToeBase
					{
						OFFSET -0.17578 -0.48294 2.47180
						CHANNELS 3 Zrotation Yrotation Xrotation
						End Site
						{
							OFFSET -0.00000 -0.00000 1.26600
						}
					}
				}
			}
		}
	}
	JOINT LowerBack
	{
		OFFSET 0 0 0
		CHANNELS 3 Zrotation Yrotation Xrotation
		JOINT Spine
		{
			OFFSET 0.00843 2.19877 -0.20423
			CHANNELS 3 Zrotation Yrotation Xrotation
			JOINT Spine1
			{
				OFFSET -0.03080 2.21436 -0.05138
				CHANNELS 3 Zrotation Yrotation Xrotation
				JOINT Neck
				{
					OFFSET 0 0 0
					CHANNELS 3 Zrotation Yrotation Xrotation
					JOINT Neck1
					{
						OFFSET -0.04063 1.58841 0.30440
						CHANNELS 3 Zrotation Yrotation Xrotation
						JOINT Head
						{
							OFFSET 0.09277 1.59484 -0.39337
							CHANNELS 3 Zrotation Yrotation Xrotation
							End Site
							{
								OFFSET 0.03488 1.66530 -0.17040
							}
						}
					}
				}
				JOINT LeftShoulder
				{
					OFFSET 0 0 0
					CHANNELS 3 Zrotation Yrotation Xrotation
					JOINT LeftArm
					{
						OFFSET 3.03849 1.31522 0.02556
						CHANNELS 3 Zrotation Yrotation Xrotation
						JOINT LeftForeArm
						{
							OFFSET 5.25537 -0.00000 0.00000
							CHANNELS 3 Zrotation Yrotation Xrotation
							JOINT LeftHand
							{
								OFFSET 3.38855 -0.00000 -0.00000
								CHANNELS 3 Zrotation Yrotation Xrotation
								JOINT LeftFingerBase
								{
									OFFSET 0 0 0
									CHANNELS 3 Zrotation Yrotation Xrotation
									JOINT LeftHandIndex1
									{
										OFFSET 0.61452 -0.00000 0.00000
										CHANNELS 3 Zrotation Yrotation Xrotation
										End Site
										{
											OFFSET 0.49544 -0.00000 0.00000
										}
									}
								}
								JOINT LThumb
								{
									OFFSET 0 0 0
									CHANNELS 3 Zrotation Yrotation Xrotation
									End Site
									{
										OFFSET 0.50300 -0.00000 0.50300
									}
								}
							}
						}
					}
				}
				JOINT RightShoulder
				{
					OFFSET 0 0 0
					CHANNELS 3 Zrotation Yrotation Xrotation
					JOINT RightArm
					{
						OFFSET -3.06926 1.12091 -0.13185
						CHANNELS 3 Zrotation Yrotation Xrotation
						JOINT RightForeArm
						{
							OFFSET -5.38183 -0.00000 0.00000
							CHANNELS 3 Zrotation Yrotation Xrotation
							JOINT RightHand
							{
								OFFSET -3.16988 -0.00000 0.00000
								CHANNELS 3 Zrotation Yrotation Xrotation
								JOINT RightFingerBase
								{
									OFFSET 0 0 0
									CHANNELS 3 Zrotation Yrotation Xrotation
									JOINT RightHandIndex1
									{
										OFFSET -0.63768 -0.00000 0.00000
										CHANNELS 3 Zrotation Yrotation Xrotation
										End Site
										{
											OFFSET -0.51411 -0.00000 0.00000
										}
									}
								}
								JOINT RThumb
								{
									OFFSET 0 0 0
									CHANNELS 3 Zrotation Yrotation Xrotation
									End Site
									{
										OFFSET -0.52196 -0.00000 0.52196
									}
								}
							}
						}
					}
				}
			}
		}
	}
}
MOTION
Frames: 8
Frame Time: 0.00884956
0.00 0.00 0.00 0 0 0 0 0 0 -21 0 0 0 0 0 0 0 0 0 0 0 0 0 0 21 0 0 0 0 0 0 0 0 0 0 0 0 0 0 0 0 0 0 0 0 0 0 -16 0 0 21 0 0 11 0 0 0 -8 0 0 0 0 0 0 0 0 0 0 0 0 0 0 0 0 0 0 0 0 8 0 0 0 0 0 0 0 0 0 0 0 0 0 0 0 0 0
0.00 0.00 0.00 11.1599 5.5707 5.6260 0.0000 0.0000 0.0000 -25.2014 -11.2385 -13.7212 3.9913 12.1488 36.2603 -0.0579 7.9498 -10.0335 2.9727 -10.6507 -31.1107 0.0000 0.0000 0.0000 8.1077 8.4973 -11.0865 -3.9077 -12.0365 35.8612 -1.4790 -11.0320 -29.3052 -1.4178 7.5304 -21.2966 -7.9836 -1.7556 0.9541 -4.4120 -2.1545 3.3995 -0.1466 -1.2193 3.1230 -8.4412 -3.9160 -19.5380 9.4531 -6.0844 31.8071 4.2772 -2.3235 14.8993 0.0000 0.0000 0.0000 -18.2705 7.1319 5.4512 24.3753 -35.5586 -7.9238 -0.0000 -0.0000 14.6547 16.1360 -9.3529 -2.6920 -7.1250 0.0000 -0.0000 -7.7330 20.2924 4.6129 0.0000 0.0000 0.0000 17.8929 -3.0646 -6.2215 -31.7854 42.3755 -12.5960 0.0000 -0.0000 -174.9330 -32.8695 -14.3143 9.0769 7.1250 -0.0000 -0.0000 -5.1515 -46.8129 0.2311
0.00 0.00 0.00 10.3476 3.8761 5.5938 0.0000 0.0000 0.0000 -33.0643 -15.8859 -17.7513 2.1830 9.2373 26.5405 0.0595 0.8584 -5.0076 0.6045 -4.9767 -13.8422 0.0000 0.0000 0.0000 6.1010 -6.5344 -15.3476 -6.9411 -15.2821 48.6514 -0.8593 0.4158 -17.3861 -0.9366 6.1646 -17.2626 -10.7356 0.5482 4.0337 -5.7003 0.5275 3.7681 0.0582 0.1123 1.6418 -6.7930 -3.0509 -22.1137 10.3443 -5.2559 28.4844 4.3604 -1.5885 13.8756 0.0000 0.0000 0.0000 -23.1443 2.2487 15.7410 44.9416 -50.7398 -22.1935 -0.0000 -0.0000 16.3625 11.9221 -12.4001 -2.5959 -7.1250 0.0000 -0.0000 -10.6248 17.4449 7.0742 0.0000 0.0000 0.0000 28.7323 4.6149 19.9940 -64.0178 57.2888 -37.7036 0.0000 -0.0000 -174.5090 -35.8898 -21.3271 14.7442 7.1250 -0.0000 -0.0000 -7.8931 -55.5365 2.0505
0.00 0.00 0.00 11.4075 4.0083 5.0991 0.0000 0.0000 0.0000 -35.4249 -13.3981 -11.6713 1.1442 6.7926 19.1023 0.0306 0.4843 -3.5191 0.2980 -3.5103 -9.7028 0.0000 0.0000 0.0000 3.0685 -6.8667 -27.2151 -11.9232 -18.3580 65.7453 -0.3659 3.5387 -10.7607 -0.3160 3.6139 -9.9928 -12.6406 0.1592 5.2235 -6.0358 -0.2027 4.1062 0.7558 -0.2844 1.4236 -6.1909 -2.0671 -23.2153 10.0206 -4.0218 30.1972 4.4508 -0.9997 14.6961 -0.0000 -0.0000 0.0000 -24.1013 -1.1610 20.1603 46.4060 -51.4390 -23.3331 -0.0000 -0.0000 18.4924 10.4723 -13.9897 -2.5585 -7.1250 0.0000 -0.0000 -11.5735 15.9495 8.1170 -0.0000 -0.0000 0.0000 28.3602 6.9231 22.4821 -67.6656 58.0286 -40.7858 0.0000 -0.0000 -174.6750 -35.9995 -21.4845 14.9006 7.1250 -0.0000 -0.0000 -8.0067 -55.7442 2.1207
0.00 0.00 0.00 10.9930 5.3610 5.2204 0.0000 0.0000 0.0000 -36.1167 -10.2164 -1.0052 0.0708 1.7165 4.7227 0.0027 1.0129 1.0889 0.3603 -3.8562 -10.6726 0.0000 0.0000 0.0000 3.1537 -3.6808 -48.3972 -16.3659 -19.6804 79.3199 -0.4243 6.6728 -11.8042 -0.3280 3.6807 -10.1799 -13.5666 -0.6934 6.2106 -5.8674 -1.4637 4.7303 1.4771 -0.9644 1.7154 -6.5116 -2.5480 -24.2350 9.4508 -4.6151 33.6062 4.3556 -1.3566 16.6176 -0.0000 0.0000 0.0000 -25.0521 -10.6446 25.8966 48.7798 -52.4914 -25.2029 -0.0000 -0.0000 19.3239 11.5452 -14.4675 -2.9215 -7.1250 0.0000 -0.0000 -10.8365 15.4015 7.7105 -0.0000 0.0000 0.0000 27.5934 10.9908 22.5212 -69.9652 58.4276 -42.7409 0.0000 -0.0000 -175.2820 -35.4991 -21.5781 14.6986 7.1250 -0.0000 -0.0000 -7.4281 -55.7355 1.9646
0.00 0.00 0.00 11.4942 6.5381 5.8206 0.0000 0.0000 0.0000 -36.6220 -4.9251 8.4851 0.0000 -0.0000 -0.0000 0.0233 -1.9900 -2.8536 0.6388 -5.1135 -14.2326 0.0000 0.0000 0.0000 -0.1875 5.4162 -61.2039 -11.2672 -18.0634 63.6462 -0.1967 6.8214 -8.6102 -0.3085 3.5711 -9.8731 -14.3567 -0.8692 7.0548 -5.6500 -1.8112 5.3208 2.1452 -1.1915 1.9712 -6.9135 -4.3375 -23.8275 9.1794 -7.2898 35.8604 3.8543 -2.5502 18.0712 0.0000 0.0000 0.0000 -21.6666 -32.9629 28.8638 51.3336 -53.5194 -27.2428 -0.0000 -0.0000 20.8679 19.4994 -12.1383 -4.2583 -7.1250 0.0000 -0.0000 -5.3666 17.1619 3.5598 0.0000 0.0000 0.0000 26.3220 23.3304 16.9648 -72.4721 58.8067 -44.8812 0.0000 -0.0000 -174.0640 -32.5130 -23.4228 14.2178 7.1250 -0.0000 -0.0000 -3.7586 -57.1312 1.1181
0.00 0.00 0.00 12.2796 3.7092 15.1537 0.0000 0.0000 0.0000 -35.8150 -2.9686 5.2635 0.0000 0.0000 0.0000 -0.0102 -1.8966 0.0353 0.4189 -4.1541 -11.5106 0.0000 0.0000 0.0000 1.4180 6.4141 -62.0415 -11.4044 -18.1273 64.0879 -0.3332 8.7902 -11.1849 -0.6133 5.0121 -13.9430 -9.4939 -0.8200 8.4400 -3.7214 -1.7831 4.4517 1.5891 -0.9938 0.1001 -6.8978 -4.2308 -26.9491 8.9844 -5.9422 25.3344 3.5740 -1.9891 13.5692 0.0000 -0.0000 0.0000 -9.4700 -47.1342 16.6256 30.7242 -41.5061 -11.8867 -0.0000 -0.0000 35.4770 8.2426 -1.8404 -0.2666 -7.1250 0.0000 -0.0000 -14.0777 28.0116 5.9845 0.0000 -0.0000 0.0000 11.3869 50.2149 -3.3898 -33.5998 43.7860 -13.8354 0.0000 -0.0000 -162.9300 -25.9390 -15.3814 7.3516 7.1250 -0.0000 -0.0000 1.6219 -46.9828 -0.0794
0.00 0.00 0.00 14.5668 3.7304 19.3433 0.0000 0.0000 0.0000 -36.1817 -4.1845 3.0841 0.0000 -0.0000 -0.0000 0.6480 4.0574 14.3720 0.0524 -1.4774 -4.0635 0.0000 0.0000 0.0000 -0.5436 7.6325 -57.1458 -9.4360 -17.0803 57.5862 -0.7571 7.1719 -15.5754 -0.1220 2.2520 -6.2027 -7.3163 -1.1272 8.4716 -3.6035 -2.0533 4.2148 0.5396 -1.0807 -0.2337 -5.5882 -2.1308 -27.9336 7.3873 -2.9405 25.5283 3.3048 -0.7613 13.4761 -0.0000 -0.0000 0.0000 -11.6179 -48.2901 17.5703 24.8952 -36.0967 -8.2281 -0.0000 -0.0000 34.2311 6.5736 1.9951 0.2299 -7.1250 0.0000 -0.0000 -15.9333 31.7131 5.3619 -0.0000 -0.0000 0.0000 9.7674 53.5309 -7.7629 -25.5565 36.7674 -8.6208 0.0000 -0.0000 -162.1300 -31.6400 -5.3879 3.3112 7.1250 -0.0000 -0.0000 -4.1657 -36.2745 -0.8956
